<svg id="wave" style="transform:rotate(180deg); transition: 0.3s" viewBox="0 0 1440 430" version="1.1" xmlns="http://www.w3.org/2000/svg"><defs><linearGradient id="sw-gradient-0" x1="0" x2="0" y1="1" y2="0"><stop stop-color="rgba(248, 252, 218, 1)" offset="0%"></stop><stop stop-color="rgba(248, 250, 170, 1)" offset="100%"></stop></linearGradient></defs><path style="transform:translate(0, 0px); opacity:1" fill="url(#sw-gradient-0)" d="M0,172L60,143.3C120,115,240,57,360,78.8C480,100,600,201,720,222.2C840,244,960,186,1080,193.5C1200,201,1320,272,1440,272.3C1560,272,1680,201,1800,186.3C1920,172,2040,215,2160,200.7C2280,186,2400,115,2520,121.8C2640,129,2760,215,2880,222.2C3000,229,3120,158,3240,150.5C3360,143,3480,201,3600,222.2C3720,244,3840,229,3960,207.8C4080,186,4200,158,4320,150.5C4440,143,4560,158,4680,179.2C4800,201,4920,229,5040,229.3C5160,229,5280,201,5400,179.2C5520,158,5640,143,5760,114.7C5880,86,6000,43,6120,50.2C6240,57,6360,115,6480,179.2C6600,244,6720,315,6840,286.7C6960,258,7080,129,7200,121.8C7320,115,7440,229,7560,272.3C7680,315,7800,287,7920,272.3C8040,258,8160,258,8280,258C8400,258,8520,258,8580,258L8640,258L8640,430L8580,430C8520,430,8400,430,8280,430C8160,430,8040,430,7920,430C7800,430,7680,430,7560,430C7440,430,7320,430,7200,430C7080,430,6960,430,6840,430C6720,430,6600,430,6480,430C6360,430,6240,430,6120,430C6000,430,5880,430,5760,430C5640,430,5520,430,5400,430C5280,430,5160,430,5040,430C4920,430,4800,430,4680,430C4560,430,4440,430,4320,430C4200,430,4080,430,3960,430C3840,430,3720,430,3600,430C3480,430,3360,430,3240,430C3120,430,3000,430,2880,430C2760,430,2640,430,2520,430C2400,430,2280,430,2160,430C2040,430,1920,430,1800,430C1680,430,1560,430,1440,430C1320,430,1200,430,1080,430C960,430,840,430,720,430C600,430,480,430,360,430C240,430,120,430,60,430L0,430Z"></path></svg>