<svg id="wave" style="transform:rotate(180deg); transition: 0.3s" viewBox="0 0 1440 450" version="1.1" xmlns="http://www.w3.org/2000/svg"><defs><linearGradient id="sw-gradient-0" x1="0" x2="0" y1="1" y2="0"><stop stop-color="rgba(248, 252, 218, 1)" offset="0%"></stop><stop stop-color="rgba(248, 250, 175, 1)" offset="100%"></stop></linearGradient></defs><path style="transform:translate(0, 0px); opacity:1" fill="url(#sw-gradient-0)" d="M0,45L18.5,75C36.9,105,74,165,111,210C147.7,255,185,285,222,262.5C258.5,240,295,165,332,142.5C369.2,120,406,150,443,180C480,210,517,240,554,247.5C590.8,255,628,240,665,217.5C701.5,195,738,165,775,172.5C812.3,180,849,225,886,247.5C923.1,270,960,270,997,240C1033.8,210,1071,150,1108,135C1144.6,120,1182,150,1218,195C1255.4,240,1292,300,1329,322.5C1366.2,345,1403,330,1440,292.5C1476.9,255,1514,195,1551,150C1587.7,105,1625,75,1662,112.5C1698.5,150,1735,255,1772,292.5C1809.2,330,1846,300,1883,307.5C1920,315,1957,360,1994,322.5C2030.8,285,2068,165,2105,135C2141.5,105,2178,165,2215,225C2252.3,285,2289,345,2326,345C2363.1,345,2400,285,2437,240C2473.8,195,2511,165,2548,180C2584.6,195,2622,255,2640,285L2658.5,315L2658.5,450L2640,450C2621.5,450,2585,450,2548,450C2510.8,450,2474,450,2437,450C2400,450,2363,450,2326,450C2289.2,450,2252,450,2215,450C2178.5,450,2142,450,2105,450C2067.7,450,2031,450,1994,450C1956.9,450,1920,450,1883,450C1846.2,450,1809,450,1772,450C1735.4,450,1698,450,1662,450C1624.6,450,1588,450,1551,450C1513.8,450,1477,450,1440,450C1403.1,450,1366,450,1329,450C1292.3,450,1255,450,1218,450C1181.5,450,1145,450,1108,450C1070.8,450,1034,450,997,450C960,450,923,450,886,450C849.2,450,812,450,775,450C738.5,450,702,450,665,450C627.7,450,591,450,554,450C516.9,450,480,450,443,450C406.2,450,369,450,332,450C295.4,450,258,450,222,450C184.6,450,148,450,111,450C73.8,450,37,450,18,450L0,450Z"></path></svg>